<svg width="40" height="40" viewBox="0 0 40 40" fill="none" xmlns="http://www.w3.org/2000/svg">
<path d="M0 12C0 9.8 1.8 8 4 8H36C37.0609 8 38.0783 8.42143 38.8284 9.17157C39.5786 9.92172 40 10.9391 40 12V28C40 29.0609 39.5786 30.0783 38.8284 30.8284C38.0783 31.5786 37.0609 32 36 32H4C2.93913 32 1.92172 31.5786 1.17157 30.8284C0.421427 30.0783 0 29.0609 0 28V12ZM4 12V16H8V12H4ZM6 18V22H10V18H6ZM4 24V28H8V24H4ZM10 24V28H30V24H10ZM32 24V28H36V24H32ZM12 18V22H16V18H12ZM18 18V22H22V18H18ZM24 18V22H28V18H24ZM30 18V22H34V18H30ZM10 12V16H14V12H10ZM16 12V16H20V12H16ZM22 12V16H26V12H22ZM28 12V16H36V12H28Z" fill="black"/>
</svg>
